<svg xmlns="http://www.w3.org/2000/svg" width="640" height="640" viewBox="0 0 640 640" role="img" aria-label="Ilustração de pessoa">
  <defs>
    <linearGradient id="bg" x1="0" y1="0" x2="1" y2="1">
      <stop offset="0" stop-color="#E8F5E9"/>
      <stop offset="1" stop-color="#F5F7FA"/>
    </linearGradient>
    <linearGradient id="shirt" x1="0" y1="0" x2="1" y2="1">
      <stop offset="0" stop-color="#2E7D32"/>
      <stop offset="1" stop-color="#34A853"/>
    </linearGradient>
  </defs>

  <rect width="640" height="640" rx="48" fill="url(#bg)"/>

  <circle cx="320" cy="260" r="120" fill="#F2C9A0"/>
  <path d="M205 245c15-70 55-118 115-118s100 48 115 118c-30-35-70-55-115-55s-85 20-115 55z" fill="#2A2A2A"/>

  <circle cx="275" cy="270" r="10" fill="#1F2937"/>
  <circle cx="365" cy="270" r="10" fill="#1F2937"/>
  <path d="M290 320c18 22 42 22 60 0" fill="none" stroke="#1F2937" stroke-width="10" stroke-linecap="round"/>

  <path d="M130 560c28-126 112-200 190-200s162 74 190 200" fill="url(#shirt)"/>
  <path d="M250 392c22 22 54 22 76 0" fill="none" stroke="#E8F5E9" stroke-width="10" stroke-linecap="round"/>
</svg>
