<svg xmlns="http://www.w3.org/2000/svg" width="640" height="640" viewBox="0 0 640 640" role="img" aria-label="Ilustração de pessoa">
  <defs>
    <linearGradient id="bg" x1="0" y1="0" x2="1" y2="1">
      <stop offset="0" stop-color="#F5F7FA"/>
      <stop offset="1" stop-color="#E8F5E9"/>
    </linearGradient>
    <linearGradient id="shirt" x1="0" y1="0" x2="1" y2="1">
      <stop offset="0" stop-color="#14532D"/>
      <stop offset="1" stop-color="#2E7D32"/>
    </linearGradient>
  </defs>

  <rect width="640" height="640" rx="48" fill="url(#bg)"/>

  <circle cx="320" cy="255" r="118" fill="#DDB38A"/>
  <path d="M210 245c8-78 50-135 110-135s102 57 110 135c-30-38-70-60-110-60s-80 22-110 60z" fill="#1F2937"/>

  <circle cx="278" cy="270" r="10" fill="#111827"/>
  <circle cx="362" cy="270" r="10" fill="#111827"/>
  <path d="M285 325c20 18 50 18 70 0" fill="none" stroke="#111827" stroke-width="10" stroke-linecap="round"/>
  <path d="M268 302h104" stroke="#111827" stroke-width="10" stroke-linecap="round" opacity="0.18"/>

  <path d="M115 560c30-132 118-210 205-210s175 78 205 210" fill="url(#shirt)"/>
  <path d="M274 402h92" stroke="#E8F5E9" stroke-width="10" stroke-linecap="round" opacity="0.9"/>
</svg>
