<svg xmlns="http://www.w3.org/2000/svg" width="640" height="640" viewBox="0 0 640 640" role="img" aria-label="Ilustração de pessoa">
  <defs>
    <linearGradient id="bg" x1="0" y1="0" x2="1" y2="1">
      <stop offset="0" stop-color="#EEF2FF"/>
      <stop offset="1" stop-color="#E8F5E9"/>
    </linearGradient>
    <linearGradient id="shirt" x1="0" y1="0" x2="1" y2="1">
      <stop offset="0" stop-color="#2E7D32"/>
      <stop offset="1" stop-color="#1B5E20"/>
    </linearGradient>
  </defs>

  <rect width="640" height="640" rx="48" fill="url(#bg)"/>

  <circle cx="320" cy="255" r="118" fill="#F0C8A0"/>
  <path d="M205 260c0-90 55-155 115-155s115 65 115 155c-25-42-68-70-115-70s-90 28-115 70z" fill="#2A2A2A"/>
  <path d="M235 230c20 20 50 34 85 34s65-14 85-34" fill="none" stroke="#2A2A2A" stroke-width="18" stroke-linecap="round" opacity="0.25"/>

  <circle cx="275" cy="272" r="10" fill="#111827"/>
  <circle cx="365" cy="272" r="10" fill="#111827"/>
  <path d="M295 330c16 14 34 14 50 0" fill="none" stroke="#111827" stroke-width="10" stroke-linecap="round"/>

  <path d="M125 560c28-128 114-205 195-205s167 77 195 205" fill="url(#shirt)"/>
  <path d="M320 365l-26 26c18 18 34 18 52 0l-26-26z" fill="#E8F5E9" opacity="0.9"/>
</svg>
